<?xml version="1.0" standalone="no"?>
<!DOCTYPE svg PUBLIC "-//W3C//DTD SVG 1.1//EN" "http://www.w3.org/Graphics/SVG/1.1/DTD/svg11.dtd" >
<!--
2013-9-30: Created.
-->
<svg>
<metadata>
Created by iconfont
</metadata>
<defs>

<font id="iconfont" horiz-adv-x="1024" >
  <font-face
    font-family="iconfont"
    font-weight="500"
    font-stretch="normal"
    units-per-em="1024"
    ascent="896"
    descent="-128"
  />
    <missing-glyph />
    
    <glyph glyph-name="x" unicode="x" horiz-adv-x="1001"
d="M281 543q-27 -1 -53 -1h-83q-18 0 -36.5 -6t-32.5 -18.5t-23 -32t-9 -45.5v-76h912v41q0 16 -0.5 30t-0.5 18q0 13 -5 29t-17 29.5t-31.5 22.5t-49.5 9h-133v-97h-438v97zM955 310v-52q0 -23 0.5 -52t0.5 -58t-10.5 -47.5t-26 -30t-33 -16t-31.5 -4.5q-14 -1 -29.5 -0.5
t-29.5 0.5h-32l-45 128h-439l-44 -128h-29h-34q-20 0 -45 1q-25 0 -41 9.5t-25.5 23t-13.5 29.5t-4 30v167h911zM163 247q-12 0 -21 -8.5t-9 -21.5t9 -21.5t21 -8.5q13 0 22 8.5t9 21.5t-9 21.5t-22 8.5zM316 123q-8 -26 -14 -48q-5 -19 -10.5 -37t-7.5 -25t-3 -15t1 -14.5
t9.5 -10.5t21.5 -4h37h67h81h80h64h36q23 0 34 12t2 38q-5 13 -9.5 30.5t-9.5 34.5q-5 19 -11 39h-368zM336 498v228q0 11 2.5 23t10 21.5t20.5 15.5t34 6h188q31 0 51.5 -14.5t20.5 -52.5v-227h-327z" />
    

    
    <glyph glyph-name="yinle" unicode="&#58995;" d="M904.285184 275.439616L904.285184 798.287872c0 0.900096-0.03584 1.815552-0.211968 2.715648L904.073216 819.926016c0 6.076416-3.095552 11.748352-8.313856 15.346688-5.24288 3.598336-12.056576 4.67968-18.200576 2.880512L320.643072 809.66656c-8.57088-2.476032-14.45888-9.874432-14.45888-18.24256 0-90.71104 0.234496-273.841152 0.47104-364.9024 0.196608-83.2768 0.434176-166.719488 0.434176-250.308608-42.059776 3.690496-93.633536-16.84992-133.91872-53.357568-28.7232-26.028032-49.033216-57.376768-57.208832-88.2688-9.022464-34.123776-2.501632-63.932416 18.399232-83.903488 15.248384-14.609408 36.584448-22.336512 61.817856-22.336512 40.465408 0 86.815744 20.118528 123.992064 53.799936 52.873216 47.997952 74.304512 111.507456 52.636672 153.631744L372.80768 686.486528l465.778688 2.276352 0-372.86912c-41.962496 3.6352-93.674496-16.869376-133.95456-53.356544-62.983168-57.119744-80.021504-132.74624-38.8096-172.189696 15.24736-14.593024 36.603904-22.301696 61.81888-22.301696 40.518656 0 86.836224 20.10112 124.027904 53.763072C904.50432 169.76691200000005 925.93664 233.314304 904.285184 275.439616z"  horiz-adv-x="1024" />

    
    <glyph glyph-name="yan" unicode="&#58943;" d="M960.088839 300.138146c0-85.86767-184.750154-268.985244-448.089351-268.985244C255.385735 31.097644 63.910137 211.243537 63.910137 300.138146c0 88.842421 192.31986 268.708951 448.089351 268.708951C777.353658 568.848121 960.145124 388.980567 960.088839 300.138146L960.088839 300.138146 960.088839 300.138146zM512.391431 519.745796c-119.279411 0-215.914175-98.367355-215.914175-219.718167 0-121.350812 96.691048-219.774449 215.914175-219.774449 119.282481 0 215.974552 98.423637 215.974552 219.774449C728.365983 421.378441 631.672888 519.745796 512.391431 519.745796L512.391431 519.745796 512.391431 519.745796zM511.999488 440.265604c-75.950851 0-137.498078-62.665225-137.498078-139.958612 0-77.29134 61.54825-139.900284 137.498078-139.900284s137.498078 62.665225 137.498078 139.961682C649.497566 377.655637 587.95034 440.265604 511.999488 440.265604L511.999488 440.265604 511.999488 440.265604zM511.999488 440.265604"  horiz-adv-x="1024" />

    
    <glyph glyph-name="feiji" unicode="&#59022;" d="M951.822632 708.879388c-2.77623 2.197038-6.570649 2.582825-9.665127 0.949628L69.066517 263.358475c-3.251044-1.670036-5.166673-5.114484-4.88424-8.752338 0.315178-3.638877 2.77623-6.730285 6.255471-7.838525l292.266483-92.89676c3.075035-0.966001 6.396687-0.245593 8.752338 1.90028l404.309302 364.274494-322.81729-382.112768c-1.950422-2.303462-2.618641-5.449106-1.75804-8.347109 0.862647-2.902096 3.110851-5.186116 6.010901-6.066159l324.294944-98.780771c0.844228-0.26606 1.722224-0.387833 2.602268-0.387833 1.544169 0 3.090385 0.404206 4.460592 1.177825 2.146896 1.230014 3.709485 3.28686 4.288676 5.692652L954.985672 699.688052C955.812503 703.115104 954.581466 706.700769 951.822632 708.879388zM552.082392 52.574794l-89.627297 27.574009c-2.706645 0.881067-5.694699 0.352017-7.979742-1.353834-2.301416-1.703805-3.65525-4.394077-3.65525-7.238868l0-169.168887c0-4.006244 2.636037-7.522324 6.502088-8.644891 0.809435-0.229221 1.651616-0.352017 2.495844-0.352017 3.022847 0 5.921873 1.526773 7.590885 4.182252L557.038264 39.16539c1.511423 2.371 1.829671 5.306866 0.843204 7.92653C556.916491 49.727956 554.771641 51.748986 552.082392 52.574794z"  horiz-adv-x="1024" />

    
    <glyph glyph-name="shuqian" unicode="&#58938;" d="M884.363636-195.918545 884.363636 727.915636c0 31.278545-22.877091 60.346182-53.946182 60.346182L180.712727 788.261818c-31.045818 0-64.814545-29.067636-64.814545-60.346182l0-923.810909c415.674182 208.174545 393.169455 207.662545 391.098182 209.454545C507.485091 15.374545 508.253091 14.722909 884.363636-195.918545zM503.086545 101.879273c-1.442909-2.676364-21.550545-21.829818-317.090909-162.676364L185.995636 680.811636c0 20.852364 16.802909 37.748364 37.492364 37.748364l554.077091 0.535273c20.689455 0 37.492364-16.919273 37.492364-37.748364L815.057455-60.261818C531.618909 87.52 503.668364 99.621818 503.086545 101.879273z"  horiz-adv-x="1024" />

    
    <glyph glyph-name="chuan" unicode="&#58890;" d="M876.935038 128.580726 115.711883 98.456638 111.481536 96.609571 110.608655 92.874503 163.525865-39.912779 163.694711-39.671279 686.270581-42.096515 688.356079-42.406576 692.021561-42.040233 881.473401 121.321392 882.349351 126.100232ZM571.15989 182.723857 571.15989 854.310505l-3.750417 7.442506L158.450267 136.62903l406.028457 37.397748C568.312028 174.59062 571.15989 178.143539 571.15989 182.723857zM789.004383 174.025755 789.060665 174.025755 794.811646 180.187081 793.65531 183.89452 621.625258 601.71965 615.281783 605.173308 610.714767 599.267808 610.714767 184.231187 616.26825 178.143539Z"  horiz-adv-x="1024" />

    
    <glyph glyph-name="rili" unicode="&#58891;" d="M824.888889-42.666667l-625.777778 0c-62.862222 0-113.777778 50.972444-113.777778 113.777778l0 512c0 62.862222 50.915556 113.777778 113.777778 113.777778l56.888889 0 0 113.777778 113.777778 0 0-113.777778 284.444444 0 0 113.777778 113.777778 0 0-113.777778 56.888889 0c62.805333 0 113.777778-50.915556 113.777778-113.777778l0-512C938.666667 8.305778 887.751111-42.666667 824.888889-42.666667zM824.888889 469.333333l-625.777778 0 0-398.222222 625.777778 0L824.888889 469.333333zM768 128l-227.555556 0 0 227.555556 227.555556 0L768 128z"  horiz-adv-x="1024" />

    
    <glyph glyph-name="zhuanfa" unicode="&#58883;" d="M460.8 25.6l0 256c0 0 414.72-30.72 512-358.4C972.8 460.8 716.8 588.8 460.8 588.8L460.8 844.8 51.2 435.2 460.8 25.6 460.8 25.6zM450.56 35.84"  horiz-adv-x="1024" />

    
    <glyph glyph-name="xiaoxi" unicode="&#58892;" d="M512.448 31.296c-32.768 0-64.704 2.752-95.808 7.424l-224.512-124.992 0 208.128C75.136 197.312 0 312.96 0 442.752c0 227.264 229.376 411.456 512.448 411.456s512.448-184.192 512.448-411.456C1024.896 215.488 795.52 31.296 512.448 31.296L512.448 31.296z"  horiz-adv-x="1025" />

    
    <glyph glyph-name="yinlemusic215" unicode="&#58904;" d="M1024 384c0 282.763636-229.236364 512-512 512C229.236364 896 0 666.763636 0 384c0-282.763636 229.236364-512 512-512C794.763636-128 1024 101.236364 1024 384zM428.916364 223.371636c0-12.520727-3.490909-30.114909-7.540364-39.144727-11.543273-25.088-48.174545-46.638545-77.730909-46.638545-18.059636 0-32.116364 5.026909-40.634182 14.522182-6.516364 8.005818-11.031273 19.549091-11.031273 30.114909 0 22.574545 17.035636 43.147636 44.637091 54.178909 11.031273 4.514909 21.085091 6.516364 30.580364 6.516364 15.546182 0 29.602909-2.513455 39.610182-7.028364L406.807273 540.904727l291.467636 70.749091 0-317.021091c0-25.088-8.517818-45.149091-25.088-60.695273-18.059636-16.058182-40.634182-25.6-62.184727-25.6-18.059636 0-31.604364 5.026909-40.122182 14.522182-6.516364 8.005818-11.031273 19.549091-11.031273 30.114909 0 19.549091 13.032727 38.120727 34.629818 49.664 11.543273 6.004364 29.602909 11.543273 39.144727 11.543273 15.546182 0 30.580364-2.513455 42.635636-7.540364L676.258909 529.361455 428.916364 467.688727 428.916364 223.371636z"  horiz-adv-x="1024" />

    
    <glyph glyph-name="xxxi" unicode="&#58893;" d="M512.48607 697.985134c64.466244 0 124.555807-11.94096 178.602747-35.493375 26.735921-11.648294 50.913577-25.524327 71.861678-41.24231 20.599154-15.456017 38.695301-33.163307 53.780881-52.627614 29.489638-38.055734 43.825135-78.102822 43.825135-122.4304 0-21.817911-3.620457-43.061748-10.759041-63.140039-7.239891-20.36277-18.3663-40.303938-33.07121-59.269895-15.089673-19.465331-33.18275-37.170574-53.778834-52.622498-20.949124-15.717983-45.125757-29.589922-71.873957-41.238216-54.033637-23.560602-114.121154-35.506678-178.590468-35.506678-18.576077 0-38.153972 1.136893-58.189284 3.37998l-16.781198 1.87879-12.376888-11.486612c-26.021653-24.150026-54.512544-44.843324-84.682681-61.505819-29.54285-16.316617-61.588707-29.260417-95.281063-38.488593 2.193968 2.538823 3.969405 4.588505 5.330402 6.151094 3.965312 4.553713 8.973372 11.212366 15.746636 20.935822 6.973832 9.997702 12.447497 19.047822 16.741289 27.681456 3.9121 7.874341 8.113795 17.492396 12.845563 29.407774 4.819772 12.138458 9.048073 25.100678 12.56927 38.525432l7.034207 26.823925-23.830755 14.179954c-39.916105 23.750937-71.674413 53.29481-94.390787 87.810928-22.077831 33.546024-32.810267 68.37732-32.810267 106.485243 0 32.881898 8.393157 63.566758 25.659403 93.810572 17.750269 31.092136 42.043558 58.362222 72.208579 81.053014 30.895661 23.243377 68.552306 42.052768 111.921046 55.906288C417.872203 690.911018 464.399889 697.985134 512.48607 697.985134M512.48607 734.824157c-52.126194 0-101.95916-7.586792-149.498896-22.77061-47.539736-15.184841-88.491427-35.704177-122.860189-61.560054-34.371832-25.855878-61.717643-56.604182-82.053808-92.227518-20.338211-35.625382-30.505781-72.984245-30.505781-112.074541 0-45.095058 12.95608-87.352487 38.877449-126.737496 25.921369-39.386032 61.35744-72.460312 106.326631-99.216699-3.15383-12.027941-6.876618-23.452131-11.17348-34.275641-4.296863-10.819416-8.16189-19.693528-11.599176-26.612101-3.439332-6.91448-8.089235-14.572904-13.964036-22.995737-5.867638-8.423857-10.305717-14.365172-13.314237-17.818831-3.004427-3.450589-7.943926-9.175987-14.820544-17.141402-6.870478-7.960299-11.310603-13.154601-13.314237-15.557324-0.290619-0.146333-1.433652-1.503237-3.437286-4.058432-2.003634-2.557242-3.006474-3.822049-3.006474-3.822049l-2.578732-4.049223c-1.431605-2.263553-2.076288-3.693112-1.934049-4.276397 0.14224-0.604774-0.14224-2.111081-0.858554-4.51892-0.717338-2.399653-0.642636-4.202719 0.213871-5.412266l0-0.446162c1.151219-5.415336 3.656273-9.776667 7.519254-13.08297 3.269463-2.784416 6.900154-4.191462 10.886955-4.191462 0.727571 0 1.466398 0.047072 2.217505 0.141216 18.618033 2.408863 34.941813 5.705955 48.973388 9.912767 75.036997 20.159132 140.910287 56.527434 197.61373 109.153002 21.474081-2.403746 42.23901-3.608178 62.287625-3.608178 69.879534 0 134.320195 12.853749 193.314821 38.57762 58.996672 25.692149 105.677854 60.72606 140.043546 105.059777 34.369785 44.331671 51.554166 92.669586 51.554166 144.979976 0 52.318576-17.184381 100.654444-51.544957 144.995325-34.369785 44.342927-81.057107 79.374792-140.04764 105.077174C646.814452 721.970408 582.365604 734.824157 512.48607 734.824157L512.48607 734.824157z"  horiz-adv-x="1024" />

    
    <glyph glyph-name="jiantou" unicode="&#58959;" d="M511.999 896C228.672 896 0 666.213 0 384.001c0-282.214 229.787-511.999 511.999-511.999 282.214 0 511.999 229.784 511.999 511.999C1023.997 666.213 795.328 896 511.999 896zM692.703 356.116 438.379 100.672c-7.807-7.805-17.847-11.155-27.887-11.155-10.04 0-20.077 3.35-27.887 11.155-15.618 15.615-15.618 40.155 0 55.775l227.559 227.554L383.719 608.211c-15.613 15.617-15.613 40.155 0 54.657 15.617 15.615 40.16 15.615 54.66 0l254.324-252.097c7.815-7.807 11.155-16.732 11.155-27.887C703.858 373.957 700.518 363.921 692.703 356.116L692.703 356.116z"  horiz-adv-x="1024" />

    
    <glyph glyph-name="tuijian" unicode="&#59001;" d="M742.87616 579.51872 254.90176 428.8704l54.13504-361.39904 76.45952 282.30272L742.87616 579.51872zM2.58816 630.57408 218.624 472.6016l753.9968 209.02656L437.69856 329.5744l297.87392-362.70848 288.1024 757.10848L2.58816 630.57408zM334.44096 43.44832l153.16352 178.69056-74.7456 80.19584L334.44096 43.44832z"  horiz-adv-x="1024" />

    
    <glyph glyph-name="zanting" unicode="&#58953;" d="M890.96063-91.332583c0-24.380952-12.15848-36.539433-36.539433-36.539433l-182.825147 0c-24.380952 0-36.539433 12.15848-36.539433 36.539433L635.056618 859.460567C634.992626 883.84152 647.215098 896 671.532058 896l176.169979 0 6.655168 0c24.380952 0 36.539433-12.15848 36.539433-36.539433L890.896638-91.332583zM349.140357 896C375.697038 896 389.007374 883.84152 389.007374 859.460567l0-950.729159C389.007374-115.713536 375.697038-127.872016 349.140357-127.872016L169.578803-127.872016c-24.380952 0-36.539433 12.15848-36.539433 36.539433L133.03937 859.460567C133.03937 883.84152 145.19785 896 169.578803 896l176.169979 0L349.140357 896z"  horiz-adv-x="1024" />

    
    <glyph glyph-name="webtubiaoku16" unicode="&#58955;" d="M100.116182 878.030704c0 6.297291 3.327837 12.44099 9.266746 15.71763 5.938909 3.276639 12.901768 2.86706 18.226307-0.511975l788.031786-494.004594c5.068552-3.174244 8.396389-8.805969 8.396389-15.205655 0-6.399686-3.327837-12.03141-8.396389-15.205655l-788.031786-494.055791c-5.324539-3.327837-12.287398-3.737417-18.226307-0.511975C103.444019-122.470671 100.116182-116.378169 100.116182-110.029681L100.116182 878.030704 100.116182 878.030704 100.116182 878.030704zM100.116182 878.030704"  horiz-adv-x="1024" />

    
    <glyph glyph-name="tianjia" unicode="&#58894;" d="M768-128C626.631111-128 512-13.368889 512 128 512 269.368889 626.631111 384 768 384 909.368889 384 1024 269.368889 1024 128 1024-13.368889 909.368889-128 768-128ZM910.222222 156.444444 796.444444 156.444444 796.444444 270.222222 739.555556 270.222222 739.555556 156.444444 625.777778 156.444444 625.777778 99.555556 739.555556 99.555556 739.555556-14.222222 796.444444-14.222222 796.444444 99.555556 910.222222 99.555556 910.222222 156.444444ZM113.777778 327.111111 512 327.111111C472.632889 279.836444 461.027556 221.240889 455.111111 156.444444L113.777778 156.444444 113.777778 42.666667 455.111111 42.666667C466.147556-27.192889 516.608-90.851556 588.856889-128L113.777778-128C50.915556-128 0-77.084444 0-14.222222L0 782.222222C0 845.084444 50.915556 896 113.777778 896L739.555556 896C802.417778 896 853.333333 845.084444 853.333333 782.222222L853.333333 440.888889 113.777778 440.888889 113.777778 327.111111ZM739.555556 611.555556 739.555556 725.333333 113.777778 725.333333 113.777778 611.555556 739.555556 611.555556Z"  horiz-adv-x="1024" />

    
    <glyph glyph-name="weixin" unicode="&#58899;" d="M579.598841 384.445217A24.635362 24.635362 0 0 1 556.521739 360.255072a24.264348 24.264348 0 0 1 23.373913-21.667246c17.511884 0 29.681159 10.833623 29.68116 21.667246 0 13.356522-12.54029 24.190145-29.68116 24.190145zM502.798841 497.011014a27.826087 27.826087 0 0 1 29.681159 29.16174 27.38087 27.38087 0 0 1-29.681159 29.161739c-17.511884 0-34.207536-10.833623-34.207537-29.161739s16.695652-29.161739 34.207537-29.16174zM512 896a512 512 0 1 1 512-512A512 512 0 0 1 512 896zM415.536232 254.293333a275.812174 275.812174 0 0 0-82.587826 13.356522l-84.591305-42.592464 24.190145 71.754203C213.333333 338.513623 178.086957 391.42029 178.086957 455.308986c0 113.456232 106.777971 200.347826 236.929855 200.347826 115.088696 0 217.711304-68.415072 237.449275-165.175653a115.533913 115.533913 0 0 1-22.26087 2.522899c-113.456232 0-201.015652-85.110725-201.015652-187.65913a201.089855 201.089855 0 0 1 6.678261-50.086957 175.044638 175.044638 0 0 0-20.851014-0.816232z m347.863188-81.623188l16.695652-60.030145-63.369275 35.84c-24.190145-4.971594-47.564058-12.54029-71.754203-12.54029-111.749565 0-200.347826 76.725797-200.347826 171.853913s88.449855 171.853913 200.347826 171.853913c105.590725-0.148406 200.941449-76.874203 200.941449-172.002319 0-53.351884-35.84-100.915942-82.587826-135.123478zM337.623188 555.408696c-17.511884 0-35.84-10.833623-35.84-29.161739s18.328116-29.235942 35.84-29.235943a28.716522 28.716522 0 0 1 29.68116 29.235943 28.197101 28.197101 0 0 1-29.68116 29.161739z m372.869566-170.666667a24.041739 24.041739 0 0 1-23.373913-24.190145 23.596522 23.596522 0 0 1 23.373913-21.667246c16.695652 0 29.161739 10.833623 29.161739 21.667246 0 13.356522-12.54029 24.190145-29.161739 24.190145z m0 0"  horiz-adv-x="1024" />

    
    <glyph glyph-name="zan" unicode="&#59052;" d="M886.596 472.462H648.012C740.452 813.915 584.305 831.36 584.305 831.36c-66.202 0-52.461-52.34-57.46-61.061 0-166.986-177.372-297.837-177.372-297.837v-473.547c0-46.728 63.7-63.555 88.685-63.555H796.66c33.728 0 61.206 88.483 61.206 88.483 88.694 301.569 88.694 391.292 88.694 391.292 0 62.308-59.964 57.327-59.964 57.327z m-635.029-0.155H108.7c-29.513 0-29.979-28.976-29.979-28.976l29.513-477.593c0-30.378 30.445-30.378 30.445-30.378H262.34c25.763 0 25.53 20.095 25.53 20.095V436.09c0 36.682-36.304 36.216-36.304 36.216z m0 0"  horiz-adv-x="1024" />

    
    <glyph glyph-name="shezhi" unicode="&#58909;" d="M371.809621 126.304446c-20.856544-21.198522-41.557458-42.540387-62.597277-63.542323-21.975651-21.935719-42.921273-22.063705-64.741293-0.570304-18.503656 18.226183-36.970451 36.497416-55.074791 55.11677-19.41389 19.965764-19.356552 41.33937 0.260066 61.262131 21.60398 21.940839 43.672805 43.424001 65.034125 64.60614-6.897915 17.362023-12.615291 33.615179-20.02003 49.060489-1.80511 3.764826-9.098245 6.759691-13.953509 6.888701-25.413858 0.678836-50.85536 0.238565-76.286624 0.344025-34.280705 0.141296-48.473803 14.248388-48.501448 48.020222-0.020478 24.890652-0.088054 49.781304 0.019454 74.671957 0.119795 27.895756 14.737805 43.394308 42.640728 44.007615 27.041835 0.594877 54.115411 0.534468 81.15827-0.05017 9.741245-0.21092 14.219719 2.935479 17.256564 12.411538 4.585982 14.312893 11.309837 27.941831 17.871918 43.649255-20.242213 20.136753-41.344489 40.991249-62.291135 62.001376-23.388612 23.459261-23.520694 43.761883-0.45051 67.078823 17.886253 18.078743 35.753052 36.184107 53.975139 53.921897 19.841874 19.314573 41.356776 19.236757 61.271345-0.371671 21.939815-21.601933 43.415809-43.675876 64.639929-65.086342 16.844961 6.797575 32.615867 12.333723 47.486777 19.687267 4.251172 2.102037 8.189035 9.399267 8.350809 14.440878 0.834467 25.946278 0.265186 51.934535 0.431056 77.906411 0.205801 32.172525 14.71016 46.734222 46.392244 46.809989 25.431264 0.060409 50.863551 0.099317 76.294815-0.011262 27.993025-0.121842 43.354376-14.735758 43.885772-42.691923 0.515014-27.045931 0.499656-54.115411-0.061433-81.159294-0.201705-9.714624 2.8935-14.22791 12.437135-17.240181 14.332347-4.523525 27.96538-11.257619 43.751644-17.823796 20.090678 20.223783 40.923673 41.350633 61.932776 62.30035 23.530933 23.46438 43.745501 23.598509 67.05425 0.504776 18.066457-17.899563 36.193322-35.744861 53.900395-53.995617 19.407746-20.003648 19.37191-41.373158-0.301022-61.265202-21.652103-21.891692-43.844817-43.24994-65.262451-64.310237 6.94911-17.174652 12.499592-32.934295 19.861327-47.795991 2.106132-4.252196 9.382885-8.199274 14.418354-8.366167 25.403619-0.843682 50.851265-0.263139 76.282528-0.425936 34.43224-0.221159 48.41237-14.187979 48.440015-48.07756 0.020478-24.890652 0.090102-49.781304-0.019454-74.671956-0.12389-27.930568-14.740877-43.367687-42.672469-43.949254-27.043883-0.563137-54.115411-0.51911-81.15827 0.058361-9.720767 0.207849-14.224839-2.883261-17.249396-12.403346-4.550146-14.323132-11.283216-27.953093-17.869871-43.752668 20.240165-20.08863 41.382373-40.909338 62.340282-61.91537 23.394756-23.447998 23.527861-43.771098 0.466892-67.083942-17.885229-18.079767-35.772505-36.164654-54.003808-53.892204-20.065081-19.510135-41.161214-19.488633-61.195578 0.322524-21.894764 21.651079-43.251988 43.843793-64.211944 65.158014-17.775673-7.048427-34.033948-12.756587-49.485402-20.150063-3.774041-1.806134-6.812933-9.084934-6.935799-13.930984-0.671669-26.497128-0.118771-53.021902-0.388052-79.533364-0.313309-30.830211-15.181148-45.216824-46.256068-45.27109-24.890652-0.043003-49.781304-0.053242-74.671957 0.003072-30.665365 0.0686-45.435935 14.767498-45.701121 45.851632-0.222183 25.970851-0.429008 51.953989 0.139248 77.913578 0.21092 9.660358-2.765514 14.270914-12.353176 17.294447-14.337466 4.518406-27.970499 11.260691-44.279969 18.045979z m-26.083478 256.754603c-0.046075-92.311453 73.230326-165.942118 165.310381-166.112083 92.397459-0.169965 166.25338 72.998928 166.478634 164.929496 0.228326 93.254452-73.152511 167.005935-166.102868 166.943478-92.137393-0.062457-165.641096-73.598925-165.686147-165.760891z"  horiz-adv-x="1024" />

    
    <glyph glyph-name="xiaoxi1" unicode="&#58954;" d="M969.728 110.592c2.048 5.632 3.072 11.264 3.072 17.408V640c0 5.632-1.024 11.264-3.072 16.896l-300.544-257.536 300.544-288.768z m-457.728 226.304l79.36 64.512 39.936 32.768 302.08 258.56c-5.12 1.536-10.24 2.56-15.36 2.56h-811.008c-5.632 0-10.752-1.024-15.36-2.56l302.08-258.56 39.936-32.768 78.336-64.512z m405.504-264.192c5.12 0 10.24 1.024 14.848 2.56l-303.104 291.328L512 271.36l-117.248 95.232-303.616-291.328c4.608-1.536 9.728-2.56 14.848-2.56h811.52z m-863.232 583.68c-1.536-5.12-3.072-10.752-3.072-16.896V128c0-6.144 1.024-12.288 3.072-17.408l300.544 288.256-300.544 257.536z"  horiz-adv-x="1024" />

    
    <glyph glyph-name="wo" unicode="&#58895;" d="M601.6 56.888889c2.844444 0 7.111111 0 9.955556 1.422222h-19.911112c2.844444 0 7.111111-1.422222 9.955556-1.422222zM810.666667 288.711111H241.777778c-54.044444 0-103.822222-32.711111-110.933334-75.377778L128 193.422222l-35.555556-115.2-5.688888-21.333333c-9.955556-54.044444 34.133333-100.977778 98.133333-100.977778h681.244444c64 0 108.088889 45.511111 98.133334 100.977778l-4.266667 22.755555-35.555556 115.2-2.844444 18.488889c-8.533333 42.666667-58.311111 75.377778-110.933333 75.377778zM513.422222 587.377778m-244.622222 0a244.622222 244.622222 0 1 1 489.244444 0 244.622222 244.622222 0 1 1-489.244444 0Z"  horiz-adv-x="1024" />

    
    <glyph glyph-name="prev_arrow-copy" unicode="&#58884;" d="M512-64c-246.975 0-448 201.024-448 448s200.96 448 448 448c247.104 0 448-201.024 448-448 0-246.975-200.896-448-448-448zM512 772.288c-214.272 0-388.672-174.208-388.673-388.288 0-214.079 174.4-388.224 388.672-388.224 214.335 0 388.736 174.208 388.736 388.224 0 214.079-174.336 388.288-388.736 388.288zM430.656 137.281c-5.76 0-11.456 2.112-15.808 6.592-8.704 8.704-8.704 22.784 0 31.616l207.296 208.512-207.167 208.576c-8.704 8.704-8.704 22.848 0 31.743 8.704 8.704 22.784 8.704 31.487 0l238.528-240.32-238.656-240.192c-4.224-4.416-9.92-6.527-15.679-6.528z"  horiz-adv-x="1024" />

    
    <glyph glyph-name="tuijian1" unicode="&#58886;" d="M814.08 424.96L419.84 29.696 167.936 281.6l394.24 395.264h251.904z"  horiz-adv-x="1024" />

    
    <glyph glyph-name="zhuanfa1" unicode="&#58921;" d="M923.648 359.424c-2.048 16.384-16.384 26.624-32.768 26.624-18.432 0-32.768-14.336-32.768-32.768v-231.424c0-16.384-6.144-30.72-16.384-40.96s-26.624-18.432-40.96-18.432h-577.536c-16.384 0-30.72 6.144-40.96 18.432-10.24 10.24-16.384 26.624-16.384 40.96v462.848c0 32.768 26.624 59.392 59.392 59.392h282.624c16.384 0 30.72 14.336 30.72 32.768s-14.336 32.768-30.72 32.768h-317.44c-51.2 0-94.208-43.008-94.208-94.208v-522.24c0-51.2 40.96-94.208 94.208-94.208h643.072c51.2 0 94.208 40.96 94.208 94.208v260.096l-4.096 6.144zM960.512 566.272l-198.656 200.704-6.144 4.096-2.048-2.048c-4.096 2.048-8.192 2.048-12.288 2.048-12.288 0-24.576-6.144-30.72-16.384-6.144-10.24-6.144-20.48-2.048-30.72l-2.048-2.048 126.976-126.976h-122.88c-225.28-28.672-280.576-167.936-296.96-385.024 0-18.432 16.384-34.816 34.816-34.816 14.336 0 28.672 10.24 32.768 26.624l2.048 8.192c16.384 198.656 55.296 296.96 229.376 315.392h120.832l-116.736-120.832-6.144-8.192c-2.048-4.096-4.096-10.24-4.096-16.384 0-18.432 16.384-34.816 34.816-34.816 6.144 0 12.288 2.048 18.432 4.096l194.56 194.56c4.096 2.048 6.144 6.144 6.144 12.288 2.048 4.096 2.048 6.144 0 10.24z"  horiz-adv-x="1024" />

    
    <glyph glyph-name="arrow-fine-left" unicode="&#58880;" d="M402.752 749.248l-320-320c-24.992-24.992-24.992-65.504 0-90.496l320-320c24.992-24.992 65.504-24.992 90.496 0 24.992 24.992 24.992 65.504 0 90.496l-210.752 210.752h613.504c35.36 0 64 28.64 64 64 0 35.36-28.64 64-64 64h-613.504l210.752 210.752c12.48 12.512 18.752 28.864 18.752 45.248s-6.24 32.768-18.752 45.248c-24.992 24.992-65.504 24.992-90.496 0z"  horiz-adv-x="1024" />

    
    <glyph glyph-name="ic_videocam_px" unicode="&#59040;" d="M725.333333 448v149.333333c0 23.466667-19.2 42.666667-42.666666 42.666667H170.666667c-23.466667 0-42.666667-19.2-42.666667-42.666667v-426.666666c0-23.466667 19.2-42.666667 42.666667-42.666667h512c23.466667 0 42.666667 19.2 42.666666 42.666667v149.333333l170.666667-170.666667V618.666667l-170.666667-170.666667z"  horiz-adv-x="1024" />

    
    <glyph glyph-name="huige" unicode="&#58888;" d="M512.512 381.44m-403.968 0a403.968 403.968 0 1 1 807.936 0 403.968 403.968 0 1 1-807.936 0ZM770.048 496.128c30.72 99.328 65.024 128 65.024 128-264.704 23.04-387.584-153.088-411.648-179.712C399.36 417.792 347.648 476.16 300.032 507.392c-65.024 41.984-82.944-24.064-93.184-25.088-10.24-1.024-16.384-20.992-16.384-20.992s47.616 41.984 82.944-89.6c40.448-150.528 137.216-245.248 295.424-233.984 11.776 1.024 22.528 2.048 32.768 3.584l-16.384 25.6 41.984-20.992c111.616 23.04 147.456 81.408 147.456 81.408-180.224-14.848-187.392 39.936-187.392 39.936 127.488 38.912 152.576 129.024 182.784 228.864z"  horiz-adv-x="1024" />

    
    <glyph glyph-name="shouchang" unicode="&#58897;" d="M832.7 346.70000000000005v333c0 29.9-14.3 52.6-39.6 61.7-7.1 2.6-15 3.6-22.5 3.6-171.9 0.2-343.7 0.2-515.5 0.2-2.7 0-5.4 0-8-0.2-30.1-2.3-53.8-29.2-53.8-62.2-0.1-241.3-0.1-389.1 0-630.5 0-21.8 8.6-38.8 24.6-51.1 24.3-18.6 54.3-15.2 76.7 8.9 45.7 49.2 185.5 146.1 210.4 173 4.3 4.7 11.8 4.7 16.2 0 69.9-75.5 139.7-96.8 209.6-172.2 19.4-21 42.2-27.1 67.1-15.7 24.9 11.5 35.3 34 35.2 64.1-0.7 95.9-0.4 191.7-0.4 287.4zM711 463.6l-103.8-73.9 40-120.3c0.6-1.9 1-3.9 1-6 0-10.5-8.6-19-19.3-19-4.2 0-8.1 1.3-11.3 3.6L513 322.5 408.4 248c-3.2-2.3-7.1-3.6-11.3-3.6-10.7 0-19.3 8.5-19.3 19 0 2 0.4 4.1 1 6l40 120.3L315 463.6c-4.8 3.4-8 9-8 15.4 0 10.5 8.6 19 19.4 19h128.4l39.7 119.7c2.5 7.8 9.8 13.5 18.5 13.5s16-5.7 18.5-13.5L571.2 498h128.4c10.7 0 19.3-8.5 19.3-19 0-6.3-3.1-11.9-7.9-15.4z"  horiz-adv-x="1024" />

    
    <glyph glyph-name="jiantou1" unicode="&#58881;" d="M512 884.1837560919347C235.45609639147847 884.1837560919347 11.215061508916449 660.5439036085215 11.215061508916449 384S235.45609639147847-116.18375609193481 512-116.18375609193481s500.78493849108355 224.24103488256205 500.78493849108355 500.1837560919347c0 276.5439036085216-224.24103488256205 500.1837560919347-500.78493849108355 500.1837560919347zM449.47703048850815 71.38515244254086L355.69257622127043 149.53886433190564l235.06231806724335 234.46113566809439L355.69257622127043 618.4611356680944l78.15371188936479 78.15371188936479 328.8467723344811-312.61484755745914-313.2160299566081-312.61484755745914z"  horiz-adv-x="1024" />

    
    <glyph glyph-name="left_arrow" unicode="&#58882;" d="M402.752 749.248l-320-320c-24.992-24.992-24.992-65.504 0-90.496l320-320c24.992-24.992 65.504-24.992 90.496 0s24.992 65.504 0 90.496l-210.752 210.752h613.504c35.36 0 64 28.64 64 64s-28.64 64-64 64h-613.504l210.752 210.752c12.48 12.512 18.752 28.864 18.752 45.248s-6.24 32.768-18.752 45.248c-24.992 24.992-65.504 24.992-90.496 0z"  horiz-adv-x="1024" />

    


  </font>
</defs>
</svg>
